<?xml version="1.0" encoding="UTF-8"?>
<svg xmlns="http://www.w3.org/2000/svg" viewBox="0 0 399.55 464.11">
<defs>
<style>
<!-- .d{fill:#000042;}.e{fill:#59e2fc;}.f{fill:#1d71d3;}.g{fill:#fcfff8;} -->
.d{fill:#d3d3d3;}.e{fill:#FFFFFF;}.f{fill:#00000;}.g{fill:#fcfff8;}
</style>
</defs>
<g id="a"/>
    <g id="b">
        <g>
        <path class="g"
        d="M346.07,278.67s21.73-14.36,25.89-9.45c4.17,4.92-12.43,23.06-25.25,28.81-12.82,5.75-47.29-.77-47.29-.77l46.65-18.59Z"/>
        <path class="d" 
        d="M27.89,328.34L.25,170.28c-1.57-8.98,4.34-17.56,13.29-19.28l27.81-5.36,25.25,151.62H349.42c11.91,0,57.37-11.7,39.94,31.08H27.89Z"/>
        <polygon class="g" 
        points="43.66 411.99 22.46 464.11 36.39 464.11 70.67 413.88 43.66 411.99"/>
        <polygon class="g" points="378.35 411.99 399.55 464.11 385.62 464.11 351.34 413.88 378.35 411.99"/>
        <path class="d" 
        d="M27.89,328.34l-1.21,82.79c-.08,5.54,4.39,10.08,9.94,10.08H379.42c5.49,0,9.94-4.45,9.94-9.94v-82.94H27.89Z"/>
        <path class="d" 
        d="M66.6,297.26S17.72,207.16,34.59,110.3c0,0,36.8,23.04,55.55,73.09,18.75,50.05,17.23,113.88,17.23,113.88h-40.77Z"/>
        <path class="d" 
        d="M134.63,297.26l53.89-56.7s164.68-11.67,172.5,6-8.69,50.7-61.59,50.7H134.63Z"/>
        <g>
        <path class="g" 
        d="M159.6,31.81c.53,17.8-13.81,56.43-18.93,60.72-5.26,4.42-17.35-3.28-17.35-3.28l-8.84,28.79-24.33-11.43L111.68,26.1s47.4-11.75,47.92,5.71Z"/>
        <path class="f" 
        d="M122.23,92.79l1.09-3.54c-6.75-3.46-13.4-7.76-13.4-7.76,0,0,4.59,5.32,12.31,11.3Z"/>
        </g>
        <path class="e" 
        d="M134.63,297.26s-37.2-45.14-52.87-105.69c-15.67-60.55-5.14-109.97,20.05-103.07,27.64,7.58,45.69,30.77,61.07,72.68,15.38,41.91,25.64,79.38,25.64,79.38,0,0-21.65,41.96-53.89,56.7Z"/>
        <path class="f" 
        d="M381.73,329.28H35.52c-.52,0-.94-.42-.94-.94s.42-.94,.94-.94H381.73c.52,0,.94,.42,.94,.94s-.42,.94-.94,.94Z"/>
        <path class="f" 
        d="M85.31,290.45c-.41,0-.78-.27-.9-.68L36.04,118.81c-.14-.5,.15-1.02,.64-1.16,.53-.13,1.02,.15,1.16,.64l48.37,170.96c.14,.5-.15,1.02-.64,1.16-.09,.03-.17,.04-.26,.04Z"/>
        <polygon class="g" 
        points="211.01 239.19 214.2 232.51 302.75 230.28 346.07 141.01 352.4 141.92 307.3 236.99 211.01 239.19"/>
        <path class="e" 
        d="M86.02,121.67l34.23,121.96,99.95-22.59-4.77-21.72-12.89,1.97s-18.46-16.37-32.52-5.81c-14.06,10.57-21.93,5.29-21.93,5.29l-25.44-89.44c-2.58-9.07-11.42-14.89-20.78-13.67h0c-11.5,1.5-18.99,12.85-15.86,24.02Z"/>
        <path class="f" 
        d="M132.9,241.26c-8.28,0-15.83-5.48-18.16-13.78l-29.62-105.55c-1.57-5.58-.63-11.57,2.56-16.41,3.2-4.84,8.32-8.04,14.07-8.79,.51-.04,.98,.3,1.05,.81,.07,.51-.3,.99-.81,1.05-5.21,.68-9.85,3.59-12.75,7.97-2.9,4.38-3.74,9.8-2.33,14.86l29.62,105.55c2.45,8.72,11.29,13.99,20.13,11.99l41.48-9.38c.52-.12,1,.21,1.12,.71,.11,.5-.21,1.01-.71,1.12l-41.48,9.38c-1.4,.32-2.8,.47-4.18,.47Z"/>
        <path class="f" 
        d="M148.09,201.7c-.41,0-.78-.27-.9-.68l-25.44-89.44c-.14-.5,.15-1.02,.64-1.16,.5-.14,1.02,.15,1.16,.64l25.44,89.44c.14,.5-.15,1.02-.64,1.16-.08,.03-.17,.04-.26,.04Z"/>
        <polygon class="g" 
        points="220.2 221.04 243.67 217.04 260.26 221.74 264.71 218.19 260.26 215.25 262.84 212.33 249.99 200.48 233.74 196.55 236.64 192.51 232.36 190.24 215.43 199.31 220.2 221.04"/>
        <path class="d" 
        d="M99.34,72.22s-7.97-36.78-8.53-49.22c-.39-8.76,11.73-5.65,11.73-5.65,0,0-2.76-12.85,5.89-14.76,8.65-1.91,24.28-1.13,42.6,6.36L185.77,0s4.75,25.4-21.44,24.25l16.62,2.76s-11.63,25.39-37.16,.35c0,0-.17,11.12-12.59,7.61,0,0-.36,25.65-3.99,25.65-1.37,0-2.61-4.8-2.61-4.8,0,0-3.31-16.08-9.44-11.71-6.13,4.36-6.79,14.24,4.68,18.84l-20.5,9.28Z"/>
        <path class="f" 
        d="M97.76,298.2h-31.16c-.34,0-.66-.19-.82-.49-.36-.66-35.85-66.98-35.67-145.95,0-.52,.42-.93,.94-.93h0c.52,0,.93,.42,.93,.94-.16,74.91,31.95,138.36,35.18,144.56h30.59c.52,0,.94,.42,.94,.94s-.42,.94-.94,.94Z"/>
        </g>
    </g>
<g id="c"/>
</svg>